<svg xmlns="http://www.w3.org/2000/svg" shape-rendering="geometricPrecision" text-rendering="geometricPrecision" image-rendering="optimizeQuality" fill-rule="evenodd" clip-rule="evenodd" viewBox="0 0 512 457.765"><path d="M148.49 0h217.918c50.103 0 91.094 41.002 91.094 91.093v60.401c-20.134-1.132-40.672 5.866-55.804 21.003-13.003 12.999-21.074 30.949-21.074 50.707v26.222H131.376v-26.222c0-19.758-8.071-37.708-21.073-50.707-14.407-14.41-33.713-21.445-52.906-21.111V91.093C57.397 40.992 98.388 0 148.49 0zm307.601 457.765h.002c13.058 0 23.741-10.682 23.741-23.74v-17.308h.132c17.616 0 32.034-14.415 32.034-32.033v-161.48c0-72.917-111.815-72.913-111.815 0v193.513h32.165v17.308c0 13.058 10.683 23.74 23.741 23.74zM111.815 223.204v193.513H79.65v17.308c0 13.058-10.683 23.74-23.741 23.74h-.002c-13.058 0-23.741-10.682-23.741-23.74v-17.308h-.132C14.418 416.717 0 402.302 0 384.684v-161.48c0-72.917 111.815-72.913 111.815 0zm268.809 51.452v79.573H131.376v-79.573h249.248zm0 104.803v37.009H131.376v-37.009h249.248z"/></svg>